<?xml version="1.0" encoding="utf-8"?>
<!-- Generator: Adobe Illustrator 19.0.0, SVG Export Plug-In . SVG Version: 6.00 Build 0)  -->
<svg version="1.1" id="Layer_1" xmlns="http://www.w3.org/2000/svg" xmlns:xlink="http://www.w3.org/1999/xlink" x="0px" y="0px"
	 viewBox="-385 263.8 69.8 67.5" style="enable-background:new -385 263.8 69.8 67.5;" xml:space="preserve">
<g>
	<g>
		<path d="M-343.6,329.1h-13.1c-1.4,0-2.5-1.1-2.5-2.5v-28.8l-23.8-27.7c-0.6-0.7-0.8-1.8-0.4-2.7s1.3-1.5,2.3-1.5h62
			c1,0,1.9,0.6,2.3,1.5s0.3,1.9-0.4,2.7l-23.8,27.7v28.8C-341.1,328-342.3,329.1-343.6,329.1z M-354.3,324.1h8.1v-27.2
			c0-0.6,0.2-1.2,0.6-1.6l20.9-24.2h-51.1l20.9,24.2c0.4,0.5,0.6,1,0.6,1.6V324.1L-354.3,324.1z"/>
	</g>
	<polygon points="-377.7,269 -320.9,269 -343.4,296.5 -343.4,324.1 -356.5,325.2 -356.5,295.7 	"/>
</g>
</svg>
