<?xml version="1.0" encoding="utf-8"?>
<!-- Generator: Adobe Illustrator 19.0.0, SVG Export Plug-In . SVG Version: 6.00 Build 0)  -->
<svg version="1.1" id="Layer_1" xmlns="http://www.w3.org/2000/svg" xmlns:xlink="http://www.w3.org/1999/xlink" x="0px" y="0px"
	 viewBox="-354.8 251.8 69.8 67.5" style="enable-background:new -354.8 251.8 69.8 67.5;" xml:space="preserve">
<style type="text/css">
	.st0{fill:#FFFFFF;}
</style>
<g>
	<g>
		<path class="st0" d="M-313.4,316.8h-13.1c-1.4,0-2.5-1.1-2.5-2.5v-28.8l-23.8-27.7c-0.6-0.7-0.8-1.8-0.4-2.7
			c0.4-0.9,1.3-1.5,2.3-1.5h62c1,0,1.9,0.6,2.3,1.5c0.4,0.9,0.3,1.9-0.4,2.7l-23.8,27.7v28.8C-310.9,315.7-312.1,316.8-313.4,316.8z
			 M-324.1,311.8h8.1v-27.2c0-0.6,0.2-1.2,0.6-1.6l20.9-24.2h-51.1l20.9,24.2c0.4,0.5,0.6,1,0.6,1.6L-324.1,311.8L-324.1,311.8z"/>
	</g>
	<polygon class="st0" points="-347.5,256.7 -290.7,256.7 -313.2,284.2 -313.2,311.8 -326.3,312.9 -326.3,283.4 	"/>
</g>
</svg>
